<svg aria-hidden="true" style="position: absolute; width: 0; height: 0; overflow: hidden;" version="1.1" xmlns="http://www.w3.org/2000/svg" xmlns:xlink="http://www.w3.org/1999/xlink">
<defs>
<symbol id="icon-suitcase" viewBox="0 0 32 32">
<title>suitcase</title>
<path d="M27 29h-23c-1.105 0-2-0.896-2-2v-12c0 0 5.221 2.685 10 3.784v1.216c0 0.553 0.447 1 1 1h5c0.552 0 1-0.447 1-1v-1.216c4.778-1.099 10-3.784 10-3.784v12c0 1.104-0.896 2-2 2zM17 17c0.552 0 1 0.447 1 1v1c0 0.553-0.448 1-1 1h-3c-0.553 0-1-0.447-1-1v-1c0-0.553 0.447-1 1-1h3zM19 17c0-0.553-0.448-1-1-1h-5c-0.553 0-1 0.447-1 1v0.896c-4.779-1.132-10-3.896-10-3.896v-4c0-1.104 0.895-2 2-2h6v-2c0-1.104 0.896-2 2-2h7c1.104 0 2 0.896 2 2v2h6c1.104 0 2 0.896 2 2v4c0 0-5.222 2.764-10 3.896v-0.896zM19 7c0-0.553-0.448-1-1-1h-5c-0.553 0-1 0.447-1 1 0 0.552 0 1 0 1h7c0 0 0-0.448 0-1z"></path>
</symbol>
<symbol id="icon-profile" viewBox="0 0 32 32">
<title>profile</title>
<path d="M23 11.031c0-0.553-0.448-1-1-1h-3c0 0 0.033-1.204 0.033-2.954 0-1.625-1.346-3.108-3.033-3.108s-2.988 1.411-2.988 3.099c0 1.625-0.012 2.964-0.012 2.964h-3c-0.553 0-1 0.447-1 1 0 0.552 0 1.938 0 1.938h14c0-0.001 0-1.387 0-1.939zM16 8.969c-0.553 0-1-0.448-1-1 0-0.553 0.447-1 1-1 0.552 0 1 0.447 1 1s-0.448 1-1 1zM28 11.031l-4-0.062 0.021 3.104h-16.021v-2.979l-4-0.062c-1.104 0-2 0.896-2 2v14c0 1.104 0.896 2 2 2h24c1.104 0 2-0.896 2-2v-14c0-1.105-0.896-2.001-2-2.001zM10 16.844c1.208 0 2.188 1.287 2.188 2.875s-0.98 2.875-2.188 2.875-2.188-1.287-2.188-2.875 0.98-2.875 2.188-2.875zM5.667 25.979c0 0 0.237-1.902 0.776-2.261s2.090-0.598 2.090-0.598 1.006 1.075 1.434 1.075c0.427 0 1.433-1.075 1.433-1.075s1.552 0.238 2.091 0.598c0.633 0.422 0.791 2.261 0.791 2.261h-8.615zM26 25.031h-9v-1h9v1zM26 23.031h-9v-1h9v1zM26 21.031h-9v-1h9v1zM26 19.031h-9v-1h9v1z"></path>
</symbol>
<symbol id="icon-envelope" viewBox="0 0 32 32">
<title>envelope</title>
<path d="M16.015 18.861l-4.072-3.343-8.862 10.463h25.876l-8.863-10.567-4.079 3.447zM29.926 6.019h-27.815l13.908 11.698 13.907-11.698zM20.705 14.887l9.291 11.084v-18.952l-9.291 7.868zM2.004 7.019v18.952l9.291-11.084-9.291-7.868z"></path>
</symbol>
<symbol id="icon-envelope2" viewBox="0 0 32 32">
<title>envelope2</title>
<path d="M20.139 18.934l9.787-7.999-13.926-9.833-13.89 9.833 9.824 8.032 8.205-0.033zM12.36 19.936l-9.279 10.962h25.876l-9.363-10.9-7.234-0.062zM20.705 19.803l9.291 11.084v-18.952l-9.291 7.868zM2.004 11.935v18.952l9.291-11.084-9.291-7.868z"></path>
</symbol>
<symbol id="icon-briefcase" viewBox="0 0 32 32">
<title>briefcase</title>
<path d="M30 8h-8v-2c0-1.1-0.9-2-2-2h-8c-1.1 0-2 0.9-2 2v2h-8c-1.1 0-2 0.9-2 2v18c0 1.1 0.9 2 2 2h28c1.1 0 2-0.9 2-2v-18c0-1.1-0.9-2-2-2zM12 6.004c0.001-0.001 0.002-0.003 0.004-0.004h7.993c0.001 0.001 0.003 0.002 0.004 0.004v1.996h-8v-1.996zM30 16h-4v3c0 0.55-0.45 1-1 1h-2c-0.55 0-1-0.45-1-1v-3h-12v3c0 0.55-0.45 1-1 1h-2c-0.55 0-1-0.45-1-1v-3h-4v-2h28v2z"></path>
</symbol>
<symbol id="icon-envelope3" viewBox="0 0 32 32">
<title>envelope3</title>
<path d="M29 4h-26c-1.657 0-3 1.343-3 3v18c0 1.656 1.343 3 3 3h26c1.657 0 3-1.344 3-3v-18c0-1.657-1.343-3-3-3zM2.741 25.99l-0.731-0.732 8.249-8.248 0.731 0.732-8.249 8.248zM29.259 25.99l-8.249-8.248 0.731-0.732 8.249 8.248-0.731 0.732zM17 19.325v0.675h-2v-0.675l-12.997-12.050 1.272-1.272 12.725 11.798 12.725-11.798 1.272 1.272-12.997 12.050z"></path>
</symbol>
<symbol id="icon-briefcase2" viewBox="0 0 32 32">
<title>briefcase2</title>
<path d="M29 32h-1v-10h4v7c0 1.656-1.343 3-3 3zM28 10h1c1.657 0 3 1.344 3 3v8h-4v-11zM6 22h8v2c0 0.553 0.448 1 1 1h2c0.553 0 1-0.447 1-1v-2h8v10h-20v-10zM18 21v-3c0-0.553-0.447-1-1-1h-2c-0.552 0-1 0.447-1 1v3h-8v-11h2v-2.5c0-4.142 3.582-7.5 8-7.5s8 3.358 8 7.5v2.5h2v11h-8zM20 8c0-2.209-1.791-4-4-4s-4 1.791-4 4v2h8v-2zM0 29v-7h4v10h-1c-1.657 0-3-1.344-3-3zM0 13c0-1.656 1.343-3 3-3h1v11h-4v-8z"></path>
</symbol>
<symbol id="icon-user" viewBox="0 0 32 32">
<title>user</title>
<path d="M0 32v-3c0-4.484 5.649-6.179 13.099-6.862-1.636-1.014-2.92-3.864-3.589-6.14-0.003 0-0.006 0.002-0.010 0.002-0.068 0-1.5-1.791-1.5-4 0-1.938-0.138-3.554 1.007-3.92-0.001-0.027-0.007-0.053-0.007-0.080 0-2.457 1.271-4.61 3.187-5.859 0.495-1.235 2.004-2.141 3.813-2.141s3.318 0.906 3.813 2.141c1.916 1.249 3.187 3.402 3.187 5.859 0 0.027-0.006 0.053-0.007 0.080 1.145 0.366 1.007 1.982 1.007 3.92 0 2.209-1.588 4-1.5 4-0.004 0-0.007-0.002-0.010-0.002-0.669 2.275-1.953 5.126-3.589 6.14 7.45 0.683 13.099 2.315 13.099 6.862v3h-32z"></path>
</symbol>
<symbol id="icon-home" viewBox="0 0 32 32">
<title>home</title>
<path d="M28.831 19.019l-2.84-2.841v14.822c0 0.553-0.446 1-0.999 1h-3.996c-0.553 0-0.999-0.447-0.999-1v-11.994c0-0.553-0.447-1-1-1h-5.995c-0.552 0-0.999 0.447-0.999 1v11.994c0 0.553-0.448 1-0.999 1h-3.996c-0.552 0-1-0.447-1-1v-14.822l-2.84 2.841-3.168-3.17 15.842-15.849 0.158 0.158 0.158-0.158 7.835 7.839v-5.826h3.997v9.825l4.010 4.011-3.169 3.17z"></path>
</symbol>
</defs>
</svg>
